<svg width="16" height="16" viewBox="0 0 16 16" fill="none" xmlns="http://www.w3.org/2000/svg">
<g clip-path="url(#clip0_15_65)">
<rect width="16" height="16" rx="8" fill="#E2E6EE"/>
<path d="M7.99998 11.75C7.4737 11.3011 6.98589 10.809 6.54165 10.2788C5.87498 9.4825 5.08331 8.29667 5.08331 7.16667C5.08272 5.98648 5.79342 4.92225 6.88376 4.47058C7.9741 4.01892 9.22917 4.26885 10.0633 5.10375C10.6118 5.64984 10.9191 6.39266 10.9167 7.16667C10.9167 8.29667 10.125 9.4825 9.45831 10.2788C9.01407 10.809 8.52626 11.3011 7.99998 11.75ZM7.99998 5.91667C7.5534 5.91667 7.14074 6.15492 6.91745 6.54167C6.69416 6.92842 6.69416 7.40492 6.91745 7.79167C7.14074 8.17842 7.5534 8.41667 7.99998 8.41667C8.69034 8.41667 9.24998 7.85702 9.24998 7.16667C9.24998 6.47631 8.69034 5.91667 7.99998 5.91667Z" fill="#79819A"/>
</g>
<defs>
<clipPath id="clip0_15_65">
<rect width="16" height="16" rx="8" fill="white"/>
</clipPath>
</defs>
</svg>
