<svg width="16" height="16" viewBox="0 0 16 16" fill="none" xmlns="http://www.w3.org/2000/svg">
<g clip-path="url(#clip0_15_57)">
<rect width="16" height="16" rx="8" fill="#E2E6EE"/>
<path d="M10.9156 11.3333C7.3608 11.3384 4.66289 8.60812 4.66669 5.08438C4.66669 4.85426 4.85324 4.66666 5.08336 4.66666H6.18309C6.38958 4.66666 6.56499 4.81838 6.59531 5.02263C6.66798 5.51216 6.81051 5.98873 7.01856 6.43779L7.06137 6.53021C7.12091 6.65871 7.08055 6.81139 6.9653 6.89369C6.62473 7.13691 6.49457 7.62648 6.75989 8.00848C7.09284 8.48785 7.51254 8.90746 7.9918 9.24025C8.37378 9.5055 8.86327 9.37536 9.10648 9.03485C9.18884 8.91954 9.34161 8.87916 9.47019 8.93872L9.56218 8.98134C10.0113 9.18937 10.4879 9.3319 10.9774 9.40456C11.1817 9.43487 11.3334 9.61028 11.3334 9.81677V10.9167C11.3334 11.1468 11.1464 11.3333 10.9162 11.3333L10.9156 11.3333Z" fill="#79819A"/>
</g>
<defs>
<clipPath id="clip0_15_57">
<rect width="16" height="16" rx="8" fill="white"/>
</clipPath>
</defs>
</svg>
