<svg width="16" height="17" viewBox="0 0 16 17" fill="none" xmlns="http://www.w3.org/2000/svg">
<g clip-path="url(#clip0_15_49)">
<rect y="0.5" width="16" height="16" rx="8" fill="#E2E6EE"/>
<path d="M6.52709 12.0563C5.68452 12.0563 4.92492 11.5487 4.60243 10.7703C4.27994 9.9919 4.45806 9.09588 5.05376 8.5L5.93793 7.61583L6.52709 8.205L5.64334 9.08875C5.32753 9.40456 5.2042 9.86486 5.31979 10.2963C5.43538 10.7277 5.77235 11.0646 6.20375 11.1802C6.63515 11.2958 7.09545 11.1725 7.41126 10.8567L8.29501 9.97292L8.88418 10.5625L8.00043 11.4463C7.61046 11.8381 7.07995 12.0578 6.52709 12.0563ZM6.82168 10.2675L6.23251 9.67833L9.17876 6.73208L9.76793 7.32125L6.82209 10.2671L6.82168 10.2675ZM10.0629 9.38375L9.47334 8.79458L10.3571 7.91083C10.6772 7.59597 10.8038 7.13361 10.6889 6.69958C10.5739 6.26554 10.2349 5.92652 9.80093 5.81144C9.36692 5.69635 8.90453 5.82288 8.58959 6.14292L7.70543 7.02667L7.11626 6.4375L8.00043 5.55333C8.81504 4.74582 10.1292 4.7487 10.9402 5.55977C11.7513 6.37085 11.7542 7.68497 10.9467 8.49958L10.0629 9.38333V9.38375Z" fill="#79819A"/>
</g>
<defs>
<clipPath id="clip0_15_49">
<rect y="0.5" width="16" height="16" rx="8" fill="white"/>
</clipPath>
</defs>
</svg>
