<svg width="12" height="13" viewBox="0 0 12 13" fill="none" xmlns="http://www.w3.org/2000/svg">
<g clip-path="url(#clip0_15_445)">
<rect y="0.81665" width="12" height="12" fill="#E1E7FE"/>
<path d="M4.89532 9.48385C4.26339 9.48385 3.69369 9.10319 3.45182 8.51939C3.20995 7.93558 3.34355 7.26356 3.79032 6.81666L4.45344 6.15353L4.89532 6.59541L4.23251 7.25822C3.99565 7.49508 3.90315 7.8403 3.98984 8.16385C4.07654 8.4874 4.32926 8.74013 4.65281 8.82682C4.97636 8.91352 5.32159 8.82101 5.55844 8.58416L6.22126 7.92134L6.66313 8.36353L6.00032 9.02635C5.70784 9.32026 5.30996 9.48499 4.89532 9.48385ZM5.11626 8.14228L4.67438 7.70041L6.88407 5.49072L7.32594 5.93259L5.11657 8.14197L5.11626 8.14228ZM7.54719 7.47947L7.10501 7.03759L7.76782 6.37478C8.0079 6.13864 8.10288 5.79186 8.01664 5.46634C7.93041 5.14081 7.6762 4.88655 7.3507 4.80023C7.02519 4.71392 6.6784 4.80882 6.44219 5.04884L5.77907 5.71166L5.33719 5.26978L6.00032 4.60666C6.61128 4.00102 7.59687 4.00318 8.20518 4.61148C8.81348 5.21979 8.81564 6.20538 8.21001 6.81634L7.54719 7.47916V7.47947Z" fill="#516CF7"/>
</g>
<defs>
<clipPath id="clip0_15_445">
<rect y="0.81665" width="12" height="12" rx="6" fill="white"/>
</clipPath>
</defs>
</svg>
