<svg width="31" height="31" viewBox="0 0 31 31" fill="none" xmlns="http://www.w3.org/2000/svg">
<path d="M7.04141 22.3747V18.2012C7.06186 17.076 7.87609 14.8011 10.9693 14.7029C14.0626 14.6047 17.7409 14.662 19.1935 14.7029C19.9842 14.7594 21.4548 14.0237 22.2311 12.2479V3.34871C21.7505 2.44856 20.0773 0.623702 17.2295 0.525503C14.3817 0.427305 12.1968 0.484587 11.4603 0.525503C10.3761 0.873289 8.17069 1.92483 8.02339 3.34871C7.87609 4.77259 7.96202 6.47879 8.02339 7.1539H15.1428V8.01314H4.77057C3.3385 8.1768 0.449832 9.47384 0.351633 13.3527C0.253435 17.2315 0.310717 17.7512 0.351633 17.5261C0.494839 18.9377 1.40726 21.8837 3.91133 22.3747H7.04141Z" fill="#3970A2" stroke="black" stroke-width="0.184122"/>
<path d="M23.4586 8.25863V12.4321C23.4381 13.5573 22.6239 15.8322 19.5307 15.9304C16.4374 16.0286 12.7591 15.9713 11.3065 15.9304C10.5158 15.8739 9.0452 16.6096 8.2689 18.3854V27.2846C8.74953 28.1847 10.4228 30.0096 13.2705 30.1078C16.1183 30.206 18.3032 30.1487 19.0397 30.1078C20.1239 29.76 22.3293 28.7085 22.4766 27.2846C22.6239 25.8607 22.538 24.1545 22.4766 23.4794H15.3572V22.6202H25.7294C27.1615 22.4565 30.0502 21.1595 30.1484 17.2806C30.2466 13.4018 30.1893 12.8821 30.1484 13.1072C30.0052 11.6956 29.0927 8.74962 26.5887 8.25863H23.4586Z" fill="#FED141" stroke="black" stroke-width="0.184122"/>
<circle cx="11.1534" cy="4.0238" r="1.4116" fill="white" stroke="black" stroke-width="0.368244"/>
<circle cx="19.1321" cy="26.364" r="1.4116" fill="white" stroke="black" stroke-width="0.368244"/>
</svg>
