<svg width="28" height="32" viewBox="0 0 28 32" fill="none" xmlns="http://www.w3.org/2000/svg">
<path d="M27.6734 8.56665L14.25 0.81665L0.826599 8.56665V24.0667L14.25 31.8166L27.6734 24.0667V8.56665Z" fill="#1644F5"/>
<path d="M20.8789 9.68773C19.549 8.35784 17.8547 7.45218 16.01 7.08526C14.1654 6.71835 12.2535 6.90666 10.5159 7.62639C8.7783 8.34612 7.29316 9.56494 6.24828 11.1287C5.2034 12.6925 4.64569 14.531 4.64569 16.4118C4.64569 18.2925 5.2034 20.131 6.24828 21.6948C7.29317 23.2586 8.7783 24.4774 10.5159 25.1971C12.2535 25.9168 14.1654 26.1052 16.01 25.7382C17.8547 25.3713 19.549 24.4657 20.8789 23.1358L17.0254 19.2822C16.4576 19.85 15.7343 20.2366 14.9469 20.3932C14.1594 20.5499 13.3432 20.4695 12.6014 20.1622C11.8596 19.855 11.2256 19.3346 10.7796 18.6671C10.3335 17.9995 10.0954 17.2146 10.0954 16.4117C10.0954 15.6089 10.3335 14.824 10.7796 14.1564C11.2256 13.4889 11.8596 12.9685 12.6014 12.6613C13.3432 12.354 14.1594 12.2736 14.9469 12.4303C15.7343 12.5869 16.4576 12.9735 17.0254 13.5413L20.8789 9.68773Z" fill="white"/>
<path d="M15.7455 16.7547H14.904V15.6728H15.7455V14.7111H16.9476V15.6728H17.7891V16.7547H16.9476V17.7164H15.7455V16.7547ZM20.1107 16.7547H19.2692V15.6728H20.1107V14.7111H21.3128V15.6728H22.1543V16.7547H21.3128V17.7164H20.1107V16.7547Z" fill="white"/>
</svg>
