<svg width="8" height="8" viewBox="0 0 8 8" fill="none" xmlns="http://www.w3.org/2000/svg">
<g clip-path="url(#clip0_181_434)">
<path d="M3.04532 6.94168C2.52504 6.9457 2.05898 6.62058 1.88314 6.13089C1.7073 5.6412 1.86006 5.09386 2.26407 4.76602C1.97751 4.53409 1.81102 4.18514 1.81102 3.81648C1.81102 3.44783 1.97751 3.09888 2.26407 2.86695C1.85993 2.53921 1.70708 1.99184 1.88295 1.50213C2.05883 1.01242 2.52501 0.687366 3.04532 0.6916H4.9547C5.47502 0.687366 5.9412 1.01242 6.11707 1.50213C6.29295 1.99184 6.1401 2.53921 5.73595 2.86695C6.13997 3.1948 6.29273 3.74214 6.11689 4.23183C5.94104 4.72151 5.47499 5.04664 4.9547 5.04258C4.71438 5.04287 4.47922 4.97292 4.27814 4.84133V5.71633C4.27521 6.39476 3.72376 6.94285 3.04532 6.94168ZM3.03845 5.04289C2.6683 5.04874 2.37242 5.3525 2.3763 5.72267C2.38018 6.09285 2.68237 6.39034 3.05256 6.38843C3.42275 6.3865 3.72184 6.08589 3.72189 5.7157V5.04289H3.03814H3.03845ZM4.95501 3.14383C4.58388 3.14572 4.28438 3.44779 4.28564 3.81892C4.2869 4.19005 4.58845 4.49007 4.95959 4.48944C5.33072 4.48882 5.63126 4.18778 5.63126 3.81664C5.62988 3.44416 5.32718 3.14314 4.9547 3.14383H4.95501ZM3.04564 3.14382C2.80526 3.14254 2.58247 3.2696 2.46117 3.47712C2.33987 3.68465 2.3385 3.94112 2.45757 4.14994C2.57665 4.35875 2.79808 4.48817 3.03845 4.48945H3.72189V3.14382H3.04564ZM4.27814 1.24477V2.59071H4.95439C5.31611 2.59239 5.61455 2.30802 5.63032 1.94664V2.08258V1.91758C5.62878 1.54554 5.32674 1.24477 4.9547 1.24477H4.27814ZM3.04501 1.24477C2.80464 1.24477 2.58253 1.373 2.46234 1.58117C2.34215 1.78934 2.34215 2.04582 2.46234 2.25398C2.58253 2.46215 2.80464 2.59039 3.04501 2.59039H3.72189V1.24477H3.04501Z" fill="#516CF7"/>
</g>
<defs>
<clipPath id="clip0_181_434">
<rect width="7.5" height="7.5" fill="white" transform="translate(0.25 0.0666504)"/>
</clipPath>
</defs>
</svg>
