<svg width="6" height="7" viewBox="0 0 6 7" fill="none" xmlns="http://www.w3.org/2000/svg">
<path d="M3 5.81666C2.68423 5.54732 2.39155 5.25204 2.125 4.93391C1.725 4.45616 1.25 3.74466 1.25 3.06666C1.24965 2.35855 1.67606 1.72001 2.33027 1.44901C2.98447 1.17801 3.73752 1.32797 4.238 1.82891C4.56712 2.15656 4.75148 2.60226 4.75001 3.06666C4.75001 3.74466 4.275 4.45616 3.875 4.93391C3.60845 5.25204 3.31577 5.54732 3 5.81666ZM3 2.31666C2.73205 2.31666 2.48446 2.45961 2.35048 2.69166C2.21651 2.92371 2.21651 3.20961 2.35048 3.44166C2.48446 3.67371 2.73205 3.81666 3 3.81666C3.41421 3.81666 3.75 3.48088 3.75 3.06666C3.75 2.65245 3.41421 2.31666 3 2.31666Z" fill="#79819A"/>
</svg>
